<svg data-v-fde0c5aa="" xmlns="http://www.w3.org/2000/svg" viewBox="0 0 300 300" class="iconLeft"><!----><defs data-v-fde0c5aa=""><!----></defs><rect data-v-fde0c5aa="" fill="#CC432F" x="0" y="0" width="300px" height="300px" class="logo-background-square"></rect><defs data-v-fde0c5aa=""><!----></defs><g data-v-fde0c5aa="" id="81869b03-2dcf-4137-9178-ba9517d132ee" fill="#DFD5CB" transform="matrix(2.9750092029571533,0,0,2.9750092029571533,135.6743631921847,124.86117226747352)"><path d="M3.74 4.20L1.16 4.20L1.16 14L3.74 14C6.82 14 8.65 11.79 8.65 9.07C8.65 6.37 6.82 4.20 3.74 4.20ZM3.75 12.70L2.49 12.70L2.49 5.50L3.75 5.50C5.99 5.50 7.31 7.07 7.31 9.07C7.31 11.03 5.99 12.70 3.75 12.70ZM14.22 6.90C13.19 6.90 12.36 7.41 11.82 8.13L11.82 2.80L10.50 2.80L10.50 14L11.82 14L11.82 12.85C12.36 13.59 13.19 14.10 14.22 14.10C16.17 14.10 17.50 12.52 17.50 10.50C17.50 8.48 16.17 6.90 14.22 6.90ZM14 12.81C12.74 12.81 11.83 11.73 11.83 10.50C11.83 9.27 12.74 8.18 14 8.18C15.26 8.18 16.14 9.21 16.14 10.50C16.14 11.77 15.26 12.81 14 12.81ZM24.37 7L24.37 8.12C23.83 7.39 23.02 6.90 21.98 6.90C20.03 6.90 18.70 8.48 18.70 10.50C18.70 12.52 20.03 14.10 21.98 14.10C23.02 14.10 23.83 13.61 24.37 12.88L24.37 14L25.69 14L25.69 7ZM22.20 12.82C20.94 12.82 20.06 11.79 20.06 10.50C20.06 9.23 20.94 8.19 22.20 8.19C23.46 8.19 24.37 9.27 24.37 10.50C24.37 11.73 23.46 12.82 22.20 12.82ZM31.21 6.86C30.24 6.86 29.50 7.32 29.09 7.98L29.09 7L27.78 7L27.78 14L29.09 14L29.09 10.18C29.09 8.79 29.82 8.06 30.80 8.06C31.79 8.06 32.51 8.79 32.51 10.18L32.51 14L33.82 14L33.82 9.98C33.82 7.90 32.58 6.86 31.21 6.86ZM41.79 14L38.47 10.54L41.59 7L39.98 7L37.11 10.32L37.11 2.80L35.80 2.80L35.80 14L37.11 14L37.11 10.78L40.08 14Z"></path></g><defs data-v-fde0c5aa=""><!----></defs><g data-v-fde0c5aa="" id="3a32e802-e42f-4945-8f1e-e01e7c2e4718" stroke="none" fill="#DFD5CB" transform="matrix(2.691417932510376,0,0,2.691417932510376,40,106.93731312780855)"><path d="M16 19.586l7.496-12.954H8.504zM7.496 12.414L0 25.368h14.992zM24.504 12.414l-7.496 12.954H32z"></path></g><!----></svg>